<?xml version="1.0" encoding="UTF-8" standalone="no"?>
<!-- Created with Inkscape (http://www.inkscape.org/) -->

<svg
   xmlns:dc="http://purl.org/dc/elements/1.1/"
   xmlns:cc="http://creativecommons.org/ns#"
   xmlns:rdf="http://www.w3.org/1999/02/22-rdf-syntax-ns#"
   xmlns:svg="http://www.w3.org/2000/svg"
   xmlns="http://www.w3.org/2000/svg"
   xmlns:sodipodi="http://sodipodi.sourceforge.net/DTD/sodipodi-0.dtd"
   xmlns:inkscape="http://www.inkscape.org/namespaces/inkscape"
   version="1.0"
   width="429.26257"
   height="133.87572"
   viewBox="0 0 429.26258 133.87572"
   id="svg2583"
   xml:space="preserve"
   style="overflow:visible"
   sodipodi:version="0.32"
   inkscape:version="0.92.4 (5da689c313, 2019-01-14)"
   sodipodi:docname="Kurtosis.svg"
   inkscape:output_extension="org.inkscape.output.svg.inkscape"><metadata
   id="metadata38"><rdf:RDF><cc:Work
       rdf:about=""><dc:format>image/svg+xml</dc:format><dc:type
         rdf:resource="http://purl.org/dc/dcmitype/StillImage" /><dc:title></dc:title></cc:Work></rdf:RDF></metadata><sodipodi:namedview
   inkscape:window-height="705"
   inkscape:window-width="1024"
   inkscape:pageshadow="2"
   inkscape:pageopacity="0.0"
   guidetolerance="10.0"
   gridtolerance="10.0"
   objecttolerance="10.0"
   borderopacity="1.0"
   bordercolor="#666666"
   pagecolor="#ffffff"
   id="base"
   showgrid="false"
   inkscape:zoom="1.2206998"
   inkscape:cx="207.02618"
   inkscape:cy="150.69854"
   inkscape:window-x="-8"
   inkscape:window-y="-8"
   inkscape:current-layer="svg2583"
   inkscape:window-maximized="1"
   fit-margin-top="0"
   fit-margin-left="0"
   fit-margin-right="0"
   fit-margin-bottom="0" /><defs
   id="defs2655" />
	<style
   type="text/css"
   id="style2585" />
	
		






	<g
   inkscape:label="Layer 1"
   id="layer1"
   transform="translate(-157.53926,-329.3272)" /><g
   inkscape:label="Layer 1"
   id="g2420"
   transform="translate(-159.17766,-330.96561)" /><g
   id="g4676"
   transform="translate(-12.210489,1.4376085)"><g
     style="fill:#999999;fill-opacity:1;stroke:#999999;stroke-opacity:1"
     transform="translate(-226)"
     id="g2626">
					<g
   style="fill:#999999;fill-opacity:1;stroke:#999999;stroke-opacity:1"
   id="g2628">
						<line
   id="line2630"
   y2="131.03516"
   x2="244.61084"
   y1="6.0351601"
   x1="244.61084"
   style="fill:#999999;fill-opacity:1;stroke:#999999;stroke-opacity:1" />
						<path
   style="fill:#999999;fill-opacity:1;stroke:#999999;stroke-opacity:1"
   d="m 244.61084,0 c 1.05371,2.83984 2.85156,6.36328 4.75488,8.54688 l -4.75488,-1.71973 -4.75488,1.71973 C 241.75928,6.36328 243.55713,2.83984 244.61084,0 Z"
   id="path2632"
   inkscape:connector-curvature="0" />
					</g>
				</g><g
     style="fill:#999999;stroke:#999999;stroke-width:1.00157475;stroke-miterlimit:4;stroke-dasharray:none;stroke-opacity:1"
     transform="translate(-226)"
     id="g2634">
					<g
   style="fill:#999999;stroke:#999999;stroke-width:1.00157475;stroke-miterlimit:4;stroke-dasharray:none;stroke-opacity:1"
   id="g2636">
						<line
   id="line2638"
   y2="126.03516"
   x2="439.61084"
   y1="126.03516"
   x1="239.61084"
   style="fill:#999999;stroke:#999999;stroke-width:1.00157475;stroke-miterlimit:4;stroke-dasharray:none;stroke-opacity:1" />
						<path
   style="fill:#999999;stroke:#999999;stroke-width:1.00157475;stroke-miterlimit:4;stroke-dasharray:none;stroke-opacity:1"
   d="m 445.646,126.03516 c -2.83984,1.05371 -6.36328,2.85156 -8.54688,4.75488 l 1.71973,-4.75488 -1.71973,-4.75488 c 2.18359,1.90331 5.70703,3.70214 8.54688,4.75488 z"
   id="path2640"
   inkscape:connector-curvature="0" />
					</g>
				</g><path
     id="path6527"
     d="m 448.625,159.71875 c -89.24289,5.12855 -172.71791,59.51703 -216.9375,136.65625 -27.61319,44.01628 -61.53801,86.00353 -107.03125,112.46875 141.08385,1.22422 282.15478,-2.94932 423.23939,-1.41028 79.38958,0.46595 158.77557,1.46483 238.16686,1.66028 C 756.65667,396.50262 735.78047,371.17964 715.00673,347.88463 678.03691,303.10635 651.29728,249.48214 606.07646,211.85827 562.2111,176.13455 504.98375,158.03968 448.625,159.71875 Z"
     style="display:inline;opacity:0.47596154;fill:#6bb7c4;fill-opacity:1;stroke:#000000;stroke-width:5;stroke-linecap:butt;stroke-linejoin:miter;stroke-miterlimit:4;stroke-dashoffset:0;stroke-opacity:1;marker-start:none"
     transform="matrix(0.2565064,0,0,0.1917199,0.5750128,47.337265)"
     inkscape:connector-curvature="0" /></g><g
   id="g4665"
   transform="translate(-12.210489,1.4376085)"><g
     style="fill:#999999;fill-opacity:1;stroke:#999999;stroke-opacity:1"
     transform="translate(234)"
     id="g2604">
					<g
   style="fill:#999999;fill-opacity:1;stroke:#999999;stroke-opacity:1"
   id="g2606">
						<line
   id="line2608"
   y2="131.03516"
   x2="5"
   y1="6.0351601"
   x1="5"
   style="fill:#999999;fill-opacity:1;stroke:#999999;stroke-opacity:1" />
						<path
   style="fill:#999999;fill-opacity:1;stroke:#999999;stroke-opacity:1"
   d="M 5,0 C 6.05371,2.83984 7.85156,6.36328 9.75488,8.54688 L 5,6.82715 0.24512,8.54688 C 2.14844,6.36328 3.94678,2.83984 5,0 Z"
   id="path2610"
   inkscape:connector-curvature="0" />
					</g>
				</g><g
     style="fill:#999999;fill-opacity:1;stroke:#999999;stroke-opacity:1"
     transform="translate(234)"
     id="g2612">
					<g
   style="fill:#999999;fill-opacity:1;stroke:#999999;stroke-opacity:1"
   id="g2614">
						<line
   id="line2616"
   y2="126.03516"
   x2="200"
   y1="126.03516"
   x1="0"
   style="fill:#999999;fill-opacity:1;stroke:#999999;stroke-opacity:1" />
						<path
   style="fill:#999999;fill-opacity:1;stroke:#999999;stroke-opacity:1"
   d="m 206.03516,126.03516 c -2.83984,1.05371 -6.36328,2.85156 -8.54688,4.75488 l 1.71973,-4.75488 -1.71973,-4.75488 c 2.1836,1.90331 5.70703,3.70214 8.54688,4.75488 z"
   id="path2618"
   inkscape:connector-curvature="0" />
					</g>
				</g><path
     id="path2457"
     d="m 465.65625,-163.4375 c -34.67155,7.72477 -62.06337,34.79405 -77.33258,65.98812 -14.75215,30.791058 -28.10245,62.250228 -41.09058,93.8245634 C 299.46236,114.40335 262.13375,236.24719 223.27988,357.39707 c -4.45124,14.34114 -8.77626,28.72068 -13.09238,43.10293 7.39346,7.40434 18.49408,2.65309 27.57432,4.44414 131.71265,1.28076 263.42933,-0.41727 395.14418,-0.0958 26.43505,-0.27362 52.89635,-1.2007 79.18775,-4.09837 C 695.62746,377.01998 691.66547,347.73709 683.20604,320.73973 647.53489,189.17939 612.9689,56.657764 559.69457,-69.140312 547.3432,-97.695691 533.85198,-127.86712 507.98948,-146.79628 c -11.92649,-8.86652 -25.99355,-15.61869 -40.92911,-16.85876 l -0.81463,0.12621 z"
     style="display:inline;overflow:visible;opacity:0.47596154;fill:#6bb7c4;fill-opacity:1;stroke:#000000;stroke-width:5;stroke-linecap:butt;stroke-linejoin:miter;stroke-miterlimit:4;stroke-dashoffset:0;stroke-opacity:1;marker-start:none"
     transform="matrix(0.2565064,0,0,0.1917199,219.79847,48.156478)"
     inkscape:connector-curvature="0" /></g></svg>