<?xml version="1.0" encoding="UTF-8" standalone="no"?>
<!-- Created with Inkscape (http://www.inkscape.org/) -->

<svg
   xmlns:dc="http://purl.org/dc/elements/1.1/"
   xmlns:cc="http://creativecommons.org/ns#"
   xmlns:rdf="http://www.w3.org/1999/02/22-rdf-syntax-ns#"
   xmlns:svg="http://www.w3.org/2000/svg"
   xmlns="http://www.w3.org/2000/svg"
   xmlns:sodipodi="http://sodipodi.sourceforge.net/DTD/sodipodi-0.dtd"
   xmlns:inkscape="http://www.inkscape.org/namespaces/inkscape"
   version="1.0"
   width="429.26257"
   height="133.87312"
   viewBox="0 0 429.26258 133.87312"
   id="svg2583"
   xml:space="preserve"
   style="overflow:visible"
   sodipodi:version="0.32"
   inkscape:version="0.92.4 (5da689c313, 2019-01-14)"
   sodipodi:docname="Skewness.svg"
   inkscape:output_extension="org.inkscape.output.svg.inkscape"><metadata
   id="metadata38"><rdf:RDF><cc:Work
       rdf:about=""><dc:format>image/svg+xml</dc:format><dc:type
         rdf:resource="http://purl.org/dc/dcmitype/StillImage" /><dc:title></dc:title></cc:Work></rdf:RDF></metadata><sodipodi:namedview
   inkscape:window-height="705"
   inkscape:window-width="1024"
   inkscape:pageshadow="2"
   inkscape:pageopacity="0.0"
   guidetolerance="10.0"
   gridtolerance="10.0"
   objecttolerance="10.0"
   borderopacity="1.0"
   bordercolor="#666666"
   pagecolor="#ffffff"
   id="base"
   showgrid="false"
   inkscape:zoom="1.2206998"
   inkscape:cx="210.61251"
   inkscape:cy="33.55588"
   inkscape:window-x="-8"
   inkscape:window-y="-8"
   inkscape:current-layer="svg2583"
   fit-margin-top="0"
   fit-margin-left="0"
   fit-margin-right="0"
   fit-margin-bottom="0"
   inkscape:window-maximized="1" /><defs
   id="defs2655" />
	<style
   type="text/css"
   id="style2585" />
	
		




	<g
   inkscape:label="Layer 1"
   id="layer1"
   transform="translate(-157.53926,-329.3272)" /><g
   id="g5451"
   transform="translate(-12.210489,1.4376085)"><g
     style="fill:#999999;stroke:#999999;stroke-opacity:1"
     transform="translate(-226)"
     id="g2626">
					<g
   style="fill:#999999;stroke:#999999;stroke-opacity:1"
   id="g2628">
						<line
   id="line2630"
   y2="131.03516"
   x2="244.61084"
   y1="6.0351601"
   x1="244.61084"
   style="fill:#999999;stroke:#999999;stroke-opacity:1" />
						<path
   style="fill:#999999;stroke:#999999;stroke-opacity:1"
   d="m 244.61084,0 c 1.05371,2.83984 2.85156,6.36328 4.75488,8.54688 l -4.75488,-1.71973 -4.75488,1.71973 C 241.75928,6.36328 243.55713,2.83984 244.61084,0 Z"
   id="path2632"
   inkscape:connector-curvature="0" />
					</g>
				</g><g
     style="fill:#999999;stroke:#999999;stroke-opacity:1"
     transform="translate(-226)"
     id="g2634">
					<g
   style="fill:#999999;stroke:#999999;stroke-opacity:1"
   id="g2636">
						<line
   id="line2638"
   y2="126.03516"
   x2="439.61084"
   y1="126.03516"
   x1="239.61084"
   style="fill:#999999;stroke:#999999;stroke-opacity:1" />
						<path
   style="fill:#999999;stroke:#999999;stroke-opacity:1"
   d="m 445.646,126.03516 c -2.83984,1.05371 -6.36328,2.85156 -8.54688,4.75488 l 1.71973,-4.75488 -1.71973,-4.75488 c 2.18359,1.90331 5.70703,3.70214 8.54688,4.75488 z"
   id="path2640"
   inkscape:connector-curvature="0" />
					</g>
				</g><path
     id="path6527"
     d="m 150,27.3125 c -9.36135,5.912078 -17.13085,13.933072 -24.52287,22.085727 -8.58252,9.880348 -18.24681,18.746623 -27.048049,28.425401 -11.117748,11.666273 -22.519767,23.082272 -34.535458,33.826482 -4.418667,3.80285 -9.248851,7.09469 -14.019531,10.41992 -0.784223,0.77143 -1.441695,1.68471 -1.842842,2.71122 2.515492,0.99126 5.260121,0.19689 7.877867,0.35277 13.431407,-0.30389 26.862932,0.20526 40.295395,0.16754 33.108738,0.16125 66.217698,0.27937 99.326738,0.35469 -5.5756,-3.04358 -8.80377,-9.02933 -10.37088,-14.98573 C 181.21663,99.099022 177.36189,87.491817 174.11162,75.703157 170.91498,64.300851 167.51466,52.942723 163.27999,41.876634 161.72623,37.615563 160.28427,33.261715 158.03125,29.3125 156.63149,27.514731 154.53264,26.235134 152.25,26 c -0.75,0.4375 -1.5,0.875 -2.25,1.3125 z"
     style="display:inline;opacity:0.47596154;fill:#6bb7c4;fill-opacity:1;stroke:#000000;stroke-width:1.22262084;stroke-linecap:butt;stroke-linejoin:miter;stroke-miterlimit:4;stroke-dashoffset:0;stroke-opacity:1;marker-start:none"
     inkscape:connector-curvature="0" /></g><g
   id="g5471"
   transform="translate(-12.210489,1.4376085)"><g
     style="fill:#999999;fill-opacity:1;stroke:#999999;stroke-opacity:1"
     transform="translate(234)"
     id="g2604">
					<g
   style="fill:#999999;fill-opacity:1;stroke:#999999;stroke-opacity:1"
   id="g2606">
						<line
   id="line2608"
   y2="131.03516"
   x2="5"
   y1="6.0351601"
   x1="5"
   style="fill:#999999;fill-opacity:1;stroke:#999999;stroke-opacity:1" />
						<path
   style="fill:#999999;fill-opacity:1;stroke:#999999;stroke-opacity:1"
   d="M 5,0 C 6.05371,2.83984 7.85156,6.36328 9.75488,8.54688 L 5,6.82715 0.24512,8.54688 C 2.14844,6.36328 3.94678,2.83984 5,0 Z"
   id="path2610"
   inkscape:connector-curvature="0" />
					</g>
				</g><g
     style="fill:#999999;fill-opacity:1;stroke:#999999;stroke-opacity:1"
     transform="translate(234)"
     id="g2612">
					<g
   style="fill:#999999;fill-opacity:1;stroke:#999999;stroke-opacity:1"
   id="g2614">
						<line
   id="line2616"
   y2="126.03516"
   x2="200"
   y1="126.03516"
   x1="0"
   style="fill:#999999;fill-opacity:1;stroke:#999999;stroke-opacity:1" />
						<path
   style="fill:#999999;fill-opacity:1;stroke:#999999;stroke-opacity:1"
   d="m 206.03516,126.03516 c -2.83984,1.05371 -6.36328,2.85156 -8.54688,4.75488 l 1.71973,-4.75488 -1.71973,-4.75488 c 2.1836,1.90331 5.70703,3.70214 8.54688,4.75488 z"
   id="path2618"
   inkscape:connector-curvature="0" />
					</g>
				</g><path
     style="opacity:0.47596154;fill:#6bb7c4;fill-opacity:1;stroke:#000000;stroke-width:1.22262084;stroke-linecap:butt;stroke-linejoin:miter;stroke-miterlimit:4;stroke-dashoffset:0;stroke-opacity:1;marker-start:none"
     d="m 290.18577,20.076254 c -5.28844,0.327254 -9.22423,4.067018 -11.25612,7.931057 -4.24205,8.159762 -4.71103,17.18595 -6.91659,25.795431 -4.60231,21.922458 -10.57005,43.808085 -20.8539,64.381228 -1.4004,2.61959 -2.97369,5.1741 -4.73333,7.63503 16.877,-0.0321 33.74829,0.61099 50.626,0.36697 32.92724,0.0555 65.85452,0.0108 98.78176,-0.016 1.60925,1.16906 3.79684,-1.65517 1.82195,-2.38633 -14.2033,-8.97936 -29.68193,-16.88271 -41.38277,-28.334319 C 345.93,85.46118 337.20858,74.370442 329.15964,63.002988 320.867,51.684853 313.09962,40.069826 303.96912,29.206783 c -2.60678,-2.91121 -5.18733,-6.030009 -8.88751,-8.020102 -1.47692,-0.717786 -3.18264,-1.152907 -4.89584,-1.110427 z"
     id="path3913"
     inkscape:connector-curvature="0" /></g></svg>